<svg xmlns="http://www.w3.org/2000/svg" width="25" height="25" viewBox="0 0 25 25">
  <path id="Icon_awesome-whatsapp-square" data-name="Icon awesome-whatsapp-square" d="M12.5,7.317A7.354,7.354,0,0,0,6.267,18.584l.173.279L5.7,21.575l2.785-.731.268.162a7.336,7.336,0,0,0,3.744,1.027H12.5a7.437,7.437,0,0,0,7.439-7.355,7.389,7.389,0,0,0-2.238-5.2A7.3,7.3,0,0,0,12.5,7.317ZM16.825,17.83a2.255,2.255,0,0,1-1.49,1.049,4.313,4.313,0,0,1-2.651-.552A9.934,9.934,0,0,1,8.906,14.99,4.284,4.284,0,0,1,8,12.7a2.476,2.476,0,0,1,.776-1.847.805.805,0,0,1,.592-.279c.145,0,.3,0,.424.006s.318-.05.5.379.625,1.529.681,1.641a.391.391,0,0,1,.017.385c-.424.848-.876.815-.647,1.205a6.024,6.024,0,0,0,3.008,2.628c.223.112.352.095.48-.056s.552-.647.7-.865.3-.184.5-.112,1.289.608,1.512.72.368.167.424.257a1.963,1.963,0,0,1-.134,1.066Zm5.5-15.58H2.679A2.679,2.679,0,0,0,0,4.929V24.571A2.679,2.679,0,0,0,2.679,27.25H22.321A2.679,2.679,0,0,0,25,24.571V4.929A2.679,2.679,0,0,0,22.321,2.25ZM12.494,23.522a8.841,8.841,0,0,1-4.23-1.077L3.571,23.679l1.256-4.587a8.866,8.866,0,1,1,16.6-4.414A8.931,8.931,0,0,1,12.494,23.522Z" transform="translate(0 -2.25)" fill="#000000"/>
</svg>
