<?xml version="1.0" encoding="UTF-8"?>
<svg width="3502px" height="592px" viewBox="0 0 3502 592" version="1.1" xmlns="http://www.w3.org/2000/svg" xmlns:xlink="http://www.w3.org/1999/xlink">
    <g id="Page-1" stroke="none" stroke-width="1" fill="none" fill-rule="evenodd">
        <g id="Black" transform="translate(0.000000, -1.000000)" fill="#000000" fill-rule="nonzero">
            <g id="SvgjsG1017" transform="translate(0.160883, 0.791782)">
                <g id="Group" transform="translate(0.630028, 0.876143)">
                    <path d="M383.866125,583.208364 L352.038043,481.219108 L171.988674,481.219108 L140.392914,583.208364 L0.0705677363,583.208364 L200.099608,37.9491796 L323.462466,37.9491796 L524.885436,583.208364 L383.866125,583.208364 Z M261.664876,190.816901 L203.352113,379.926819 L320.442283,379.926819 L261.664876,190.816901 Z M713.298388,583.208364 L586.683026,583.208364 L586.683026,265.62451 L527.905619,265.62451 L527.905619,178.039204 L586.683026,178.039204 L586.683026,145.746479 L586.683026,145.746479 C586.683026,99.5918881 600.31257,63.8143362 627.571657,38.4138231 L627.571657,38.4138231 L627.571657,38.4138231 C654.675863,13.0133101 692.854073,0.313053579 742.106287,0.313053579 L742.106287,0.313053579 L742.106287,0.313053579 C760.072504,0.313053579 779.742413,2.94603359 801.116016,8.21199361 L801.116016,8.21199361 L801.580659,100.908378 L801.580659,100.908378 C793.8366,98.7400416 783.459561,97.6558734 770.449543,97.6558734 L770.449543,97.6558734 L770.449543,97.6558734 C732.348773,97.6558734 713.298388,114.073278 713.298388,146.908088 L713.298388,146.908088 L713.298388,178.039204 L792.287789,178.039204 L792.287789,265.62451 L713.298388,265.62451 L713.298388,583.208364 Z M857.337883,77.4438798 L983.488602,77.4438798 L983.488602,178.039204 L1050.16495,178.039204 L1050.16495,265.62451 L983.488602,265.62451 L983.488602,451.017279 L983.488602,451.017279 C983.488602,466.195634 986.276463,476.804995 991.852185,482.845361 L991.852185,482.845361 L991.852185,482.845361 C997.273026,488.730846 1008.11471,491.673588 1024.37723,491.673588 L1024.37723,491.673588 L1024.37723,491.673588 C1036.76773,491.673588 1047.22221,490.976623 1055.74067,489.582692 L1055.74067,489.582692 L1055.74067,579.723537 L1055.74067,579.723537 C1032.97314,587.002952 1009.27632,590.64266 984.650211,590.64266 L984.650211,590.64266 L984.650211,590.64266 C941.283481,590.64266 909.223077,580.420502 888.469,559.976187 L888.469,559.976187 L888.469,559.976187 C867.714922,539.37699 857.337883,508.245874 857.337883,466.582837 L857.337883,466.582837 L857.337883,265.62451 L805.762451,265.62451 L805.762451,178.039204 L857.337883,178.039204 L857.337883,77.4438798 Z M1295.72905,590.64266 L1295.72905,590.64266 L1295.72905,590.64266 C1233.6217,590.64266 1183.36276,572.056919 1144.95223,534.885436 L1144.95223,534.885436 L1144.95223,534.885436 C1106.38682,497.868835 1087.10411,449.700789 1087.10411,390.381298 L1087.10411,390.381298 L1087.10411,379.926819 L1087.10411,379.926819 C1087.10411,338.418663 1094.84817,301.789265 1110.33629,270.038623 L1110.33629,270.038623 L1110.33629,270.038623 C1125.66952,238.442863 1148.04985,213.971637 1177.47728,196.624946 L1177.47728,196.624946 L1177.47728,196.624946 C1206.9047,179.278254 1241.83041,170.604908 1282.25439,170.604908 L1282.25439,170.604908 L1282.25439,170.604908 C1339.09578,170.604908 1384.01133,188.261362 1417.00102,223.57427 L1417.00102,223.57427 L1417.00102,223.57427 C1449.99071,258.887179 1466.48555,308.139393 1466.48555,371.330913 L1466.48555,371.330913 L1466.48555,420.350806 L1215.57805,420.350806 L1215.57805,420.350806 C1220.0696,442.963458 1229.90455,460.774793 1245.08291,473.784812 L1245.08291,473.784812 L1245.08291,473.784812 C1260.41615,486.794831 1280.1635,493.29984 1304.32496,493.29984 L1304.32496,493.29984 L1304.32496,493.29984 C1344.2843,493.29984 1375.49286,479.283094 1397.95063,451.249601 L1397.95063,451.249601 L1455.56643,519.5522 L1455.56643,519.5522 C1439.76855,541.235565 1417.46566,558.504816 1388.65776,571.359954 L1388.65776,571.359954 L1388.65776,571.359954 C1359.84986,584.215091 1328.87363,590.64266 1295.72905,590.64266 Z M1281.55743,267.947728 L1281.55743,267.947728 L1281.55743,267.947728 C1244.54083,267.947728 1222.5477,292.418954 1215.57805,341.361406 L1215.57805,341.361406 L1342.89037,341.361406 L1342.89037,331.603891 L1342.89037,331.603891 C1343.35502,311.314457 1338.24394,295.594018 1327.55714,284.442573 L1327.55714,284.442573 L1327.55714,284.442573 C1316.87034,273.446009 1301.5371,267.947728 1281.55743,267.947728 Z M1764.32206,175.019021 L1762.23116,292.341513 L1720.64556,289.32133 L1720.64556,289.32133 C1680.99598,289.32133 1655.51803,301.789265 1644.2117,326.725134 L1644.2117,326.725134 L1644.2117,583.208364 L1518.06098,583.208364 L1518.06098,178.039204 L1636.31276,178.039204 L1640.49455,230.07928 L1640.49455,230.07928 C1661.71328,190.429698 1691.29558,170.604908 1729.24147,170.604908 L1729.24147,170.604908 L1729.24147,170.604908 C1742.71613,170.604908 1754.40966,172.076279 1764.32206,175.019021 L1764.32206,175.019021 Z M1808.46319,178.039204 L1926.94729,178.039204 L1930.89676,225.665166 L1930.89676,225.665166 C1959.70466,188.958327 1998.27007,170.604908 2046.593,170.604908 L2046.593,170.604908 L2046.593,170.604908 C2097.85867,170.604908 2132.47461,190.894342 2150.44083,231.47321 L2150.44083,231.47321 L2150.44083,231.47321 C2177.8548,190.894342 2217.50438,170.604908 2269.38957,170.604908 L2269.38957,170.604908 L2269.38957,170.604908 C2351.4766,170.604908 2393.68172,220.244325 2396.00494,319.52316 L2396.00494,319.52316 L2396.00494,583.208364 L2269.38957,583.208364 L2269.38957,327.4221 L2269.38957,327.4221 C2269.38957,306.668022 2265.90475,291.567107 2258.9351,282.119355 L2258.9351,282.119355 L2258.9351,282.119355 C2251.96544,272.671604 2239.26519,267.947728 2220.83433,267.947728 L2220.83433,267.947728 L2220.83433,267.947728 C2195.74357,267.947728 2177.08039,279.021732 2164.84478,301.16974 L2164.84478,301.16974 L2165.30942,306.513141 L2165.30942,583.208364 L2038.69406,583.208364 L2038.69406,328.119065 L2038.69406,328.119065 C2038.69406,306.900344 2035.36412,291.567107 2028.70423,282.119355 L2028.70423,282.119355 L2028.70423,282.119355 C2021.88945,272.671604 2009.03432,267.947728 1990.13881,267.947728 L1990.13881,267.947728 L1990.13881,267.947728 C1965.97735,267.947728 1947.54649,279.021732 1934.84623,301.16974 L1934.84623,301.16974 L1934.84623,583.208364 L1808.46319,583.208364 L1808.46319,178.039204 Z M2822.31538,583.208364 L2696.16466,583.208364 L2696.16466,583.208364 C2691.6731,574.84478 2687.64619,562.686608 2684.08393,546.733846 L2684.08393,546.733846 L2684.08393,546.733846 C2661.00663,576.006389 2628.55902,590.64266 2586.74111,590.64266 L2586.74111,590.64266 L2586.74111,590.64266 C2548.64034,590.64266 2516.19273,579.104012 2489.39829,556.026717 L2489.39829,556.026717 L2489.39829,556.026717 C2462.75872,532.949422 2449.43894,503.909201 2449.43894,468.906055 L2449.43894,468.906055 L2449.43894,468.906055 C2449.43894,424.919801 2465.70147,391.697788 2498.22651,369.240017 L2498.22651,369.240017 L2498.22651,369.240017 C2530.59668,346.782247 2577.758,335.553361 2639.71047,335.553361 L2639.71047,335.553361 L2678.5082,335.553361 L2678.5082,314.412081 L2678.5082,314.412081 C2678.5082,277.240598 2662.40056,258.654857 2630.18528,258.654857 L2630.18528,258.654857 L2630.18528,258.654857 C2600.29321,258.654857 2585.34718,273.368569 2585.34718,302.795992 L2585.34718,302.795992 L2459.19646,302.795992 L2459.19646,302.795992 C2459.19646,263.611055 2475.84618,231.782973 2509.14564,207.311747 L2509.14564,207.311747 L2509.14564,207.311747 C2542.44509,182.840521 2584.95997,170.604908 2636.69029,170.604908 L2636.69029,170.604908 L2636.69029,170.604908 C2688.26572,170.604908 2729.07691,183.227724 2759.12386,208.473356 L2759.12386,208.473356 L2759.12386,208.473356 C2789.01592,233.564106 2804.34916,268.102609 2805.12357,312.088863 L2805.12357,312.088863 L2805.12357,491.441266 L2805.12357,491.441266 C2805.58821,528.612749 2811.31881,557.033445 2822.31538,576.703354 L2822.31538,576.703354 L2822.31538,583.208364 Z M2617.17526,500.734137 L2617.17526,500.734137 L2617.17526,500.734137 C2632.81826,500.734137 2645.82828,497.404191 2656.20531,490.744301 L2656.20531,490.744301 L2656.20531,490.744301 C2666.58235,483.929529 2674.01665,476.262911 2678.5082,467.744446 L2678.5082,467.744446 L2678.5082,402.926673 L2641.80136,402.926673 L2641.80136,402.926673 C2597.96999,402.926673 2576.05431,422.674024 2576.05431,462.168724 L2576.05431,462.168724 L2576.05431,462.168724 C2576.05431,473.629931 2579.92633,482.922801 2587.67039,490.047336 L2587.67039,490.047336 L2587.67039,490.047336 C2595.41445,497.17187 2605.24941,500.734137 2617.17526,500.734137 Z M2895.72905,77.4438798 L3021.87977,77.4438798 L3021.87977,178.039204 L3088.55612,178.039204 L3088.55612,265.62451 L3021.87977,265.62451 L3021.87977,451.017279 L3021.87977,451.017279 C3021.87977,466.195634 3024.59019,476.804995 3030.01104,482.845361 L3030.01104,482.845361 L3030.01104,482.845361 C3035.58676,488.730846 3046.42844,491.673588 3062.53608,491.673588 L3062.53608,491.673588 L3062.53608,491.673588 C3075.08146,491.673588 3085.61338,490.976623 3094.13184,489.582692 L3094.13184,489.582692 L3094.13184,579.723537 L3094.13184,579.723537 C3071.36431,587.002952 3047.66749,590.64266 3023.04138,590.64266 L3023.04138,590.64266 L3023.04138,590.64266 C2979.51977,590.64266 2947.45937,580.420502 2926.86017,559.976187 L2926.86017,559.976187 L2926.86017,559.976187 C2906.10609,539.37699 2895.72905,508.245874 2895.72905,466.582837 L2895.72905,466.582837 L2895.72905,265.62451 L2843.9213,265.62451 L2843.9213,178.039204 L2895.72905,178.039204 L2895.72905,77.4438798 Z M3261.40351,8.21199361 L3261.40351,221.483374 L3261.40351,221.483374 C3288.35284,187.564397 3322.8139,170.604908 3364.7867,170.604908 L3364.7867,170.604908 L3364.7867,170.604908 C3409.39248,170.604908 3443.07913,183.847248 3465.84667,210.33193 L3465.84667,210.33193 L3465.84667,210.33193 C3488.45932,236.66173 3500.07541,275.691786 3500.69493,327.4221 L3500.69493,327.4221 L3500.69493,583.208364 L3374.07957,583.208364 L3374.07957,330.442283 L3374.07957,330.442283 C3374.07957,308.913799 3369.7429,293.115919 3361.06955,283.048642 L3361.06955,283.048642 L3361.06955,283.048642 C3352.24132,272.981366 3337.37273,267.947728 3316.46377,267.947728 L3316.46377,267.947728 L3316.46377,267.947728 C3290.44373,267.947728 3272.09032,276.15643 3261.40351,292.573835 L3261.40351,292.573835 L3261.40351,583.208364 L3135.2528,583.208364 L3135.2528,8.21199361 L3261.40351,8.21199361 Z" id="Shape"></path>
                </g>
            </g>
        </g>
    </g>
</svg>