<svg id="Layer_1" height="65" viewBox="0 0 512 512" width="65" xmlns="http://www.w3.org/2000/svg" data-name="Layer 1">
<g fill="#4bb5f0">
<path  d="m88.15 203.151c2.408-3.377 18.932-10.246 50.678-11.469q-4.773-.184-10-.19c-38.3 0-58.029 7.944-60.678 11.659 2.649 3.716 22.381 11.66 60.678 11.66q5.232 0 10-.19c-31.746-1.221-48.27-8.092-50.678-11.47z"/>
<path d="m88 425.418v-21.392c-2.743-.475-5.335-1-7.744-1.56a70.284 70.284 0 0 1 -12.256-3.846v26.8c1.937 3.6 21.685 11.9 60.828 11.9q5.234 0 10-.191c-32.516-1.256-49.063-8.429-50.828-11.711z"/>
<path d="m88.063 384.661a5.8 5.8 0 0 0 -.063-.637v-26.2c-2.682-.428-5.215-.9-7.578-1.418a69.82 69.82 0 0 1 -12.422-3.713v31.331a5.8 5.8 0 0 1 .063.637c2.128 3.231 19.927 10.166 61 10.77 4.3.064 8.4-.011 12.3-.2-35.613-1.289-51.31-7.549-53.3-10.57z"/>
<path d="m88 338.8v-28.25c-2.682-.428-5.215-.9-7.578-1.419a69.82 69.82 0 0 1 -12.422-3.717v33.386c2.2 3.2 20.087 9.86 61.093 9.86 2.947 0 5.79-.069 8.55-.186-32.921-1.096-47.657-6.788-49.643-9.674z"/>
<path d="m88 291.52v-28.249c-2.682-.428-5.215-.9-7.578-1.419a69.736 69.736 0 0 1 -12.422-3.717v33.385c2.2 3.2 20.087 9.86 61.093 9.86 2.947 0 5.79-.069 8.549-.187-32.92-1.093-47.656-6.786-49.642-9.673z"/>
<path d="m88 244.241v-21.021a86.131 86.131 0 0 1 -20-6.04v27.061c2.2 3.2 20.087 9.86 61.093 9.86 2.947 0 5.79-.069 8.549-.187-32.92-1.094-47.656-6.786-49.642-9.673z"/>
<path d="m254.534 155.933c2.408-3.377 18.932-10.246 50.677-11.469q-4.772-.184-10-.19c-38.3 0-58.028 7.944-60.677 11.659 2.649 3.716 22.381 11.66 60.677 11.66q5.233 0 10-.19c-31.745-1.223-48.269-8.092-50.677-11.47z"/>
<path d="m254.384 197.023v-21.023a86.18 86.18 0 0 1 -20-6.04v27.061c2.2 3.2 20.088 9.86 61.094 9.86 2.946 0 5.79-.069 8.549-.187-32.921-1.094-47.657-6.784-49.643-9.671z"/>
<path d="m254.384 244.3v-28.247c-2.682-.428-5.216-.9-7.578-1.419a69.772 69.772 0 0 1 -12.422-3.717v33.383c2.2 3.2 20.088 9.86 61.094 9.86 2.946 0 5.79-.069 8.549-.187-32.921-1.092-47.657-6.784-49.643-9.673z"/>
<path d="m254.384 291.58v-28.248c-2.682-.428-5.216-.9-7.578-1.419a69.772 69.772 0 0 1 -12.422-3.717v33.384c2.2 3.2 20.088 9.861 61.094 9.861 2.946 0 5.791-.069 8.55-.187-32.921-1.094-47.658-6.787-49.644-9.674z"/>
<path d="m254.447 337.443a5.821 5.821 0 0 0 -.063-.637v-26.195c-2.682-.428-5.216-.9-7.578-1.419a69.772 69.772 0 0 1 -12.422-3.717v31.331a5.821 5.821 0 0 1 .063.637c2.128 3.231 19.927 10.166 61 10.77 4.285.062 8.371-.014 12.259-.2-35.583-1.295-51.27-7.55-53.259-10.57z"/>
<path d="m272.416 389.272c-12.686-2.6-17.151-5.66-17.97-6.8a5.934 5.934 0 0 0 -.062-.628v-25.036c-2.743-.475-5.335-1-7.744-1.56a70.19 70.19 0 0 1 -12.256-3.847v30.446a5.934 5.934 0 0 1 .062.628c.819 1.137 5.284 4.2 17.97 6.8 11.349 2.326 26.63 3.741 43.027 3.982 3.75.055 7.916-.024 12.13-.212a225.707 225.707 0 0 1 -35.157-3.773z"/>
<path d="m254.384 425.418v-23.569c-2.743-.475-5.335-1-7.744-1.56a70.19 70.19 0 0 1 -12.256-3.847v28.976c1.937 3.6 21.684 11.9 60.827 11.9 2.279 0 4.9-.12 7.616-.3-30.936-1.502-46.722-8.402-48.443-11.6z"/>
</g>
<path d="m128.828 449.317c27.048 0 72.827-4.982 72.827-23.659v-41.333a11.458 11.458 0 0 0 .113-1.44 6.015 6.015 0 0 0 -.113-1.252v-178.482c0-18.676-45.779-23.659-72.827-23.659s-72.828 4.983-72.828 23.659v222.507c0 18.677 45.779 23.659 72.828 23.659zm60.827-209.01c-1.779 4.2-24.151 13.794-60.562 13.794-41.006 0-58.89-6.657-61.093-9.86v-27.061c15.439 7.33 42.453 9.631 60.828 9.631s45.388-2.3 60.827-9.631zm-109.233 21.545c12.5 2.74 29.789 4.249 48.671 4.249 18.021 0 35.38-2.278 48.879-6.414a71.622 71.622 0 0 0 11.683-4.6v32.5c-1.779 4.2-24.151 13.794-60.562 13.794-41.006 0-58.89-6.657-61.093-9.86v-33.386a69.736 69.736 0 0 0 12.422 3.717zm0 47.279c12.5 2.74 29.789 4.249 48.671 4.249 18.021 0 35.38-2.278 48.879-6.414a71.618 71.618 0 0 0 11.683-4.6v32.5c-1.779 4.2-24.15 13.793-60.562 13.793-41.006-.001-58.893-6.659-61.093-9.859v-33.386a69.82 69.82 0 0 0 12.422 3.717zm0 47.279c12.5 2.74 29.789 4.248 48.671 4.248 18.021 0 35.38-2.278 48.879-6.413a71.618 71.618 0 0 0 11.683-4.6v33.088c-2.446 4.261-24.788 13.236-60.6 12.7-41.069-.6-58.868-7.539-61-10.77a5.8 5.8 0 0 0 -.063-.637v-31.333a69.82 69.82 0 0 0 12.43 3.717zm48.406 80.907c-39.143 0-58.891-8.3-60.828-11.9v-26.8a70.284 70.284 0 0 0 12.256 3.846c12.474 2.923 29.743 4.686 48.627 4.964q1.572.022 3.134.023c16.889 0 33.053-2.011 45.811-5.719a71.341 71.341 0 0 0 11.827-4.471v28.155c-1.937 3.604-21.684 11.902-60.827 11.902zm0-245.825c38.3 0 58.028 7.944 60.677 11.659-2.649 3.716-22.381 11.66-60.677 11.66s-58.028-7.944-60.678-11.66c2.65-3.715 22.381-11.659 60.678-11.659z" fill="#4bb5f0"/>
<path d="m295.211 449.317c5.985 0 13.681-.7 19.865-1.264 1.5-.136 2.914-.265 4.188-.373a6 6 0 1 0 -1.014-11.957c-1.3.11-2.735.24-4.262.38-5.943.541-13.338 1.214-18.777 1.214-39.143 0-58.89-8.3-60.827-11.9v-28.975a70.19 70.19 0 0 0 12.256 3.847c12.474 2.923 29.743 4.686 48.627 4.964q1.315.018 2.681.019a234.82 234.82 0 0 0 30.381-2 6 6 0 1 0 -1.68-11.882 224.9 224.9 0 0 1 -31.206 1.867c-16.4-.241-31.678-1.656-43.027-3.982-12.686-2.6-17.151-5.66-17.97-6.8a5.934 5.934 0 0 0 -.062-.628v-30.447a70.19 70.19 0 0 0 12.256 3.847c12.474 2.923 29.743 4.686 48.627 4.964q1.572.022 3.137.022c16.888 0 33.05-2.009 45.808-5.718a71.252 71.252 0 0 0 11.827-4.471v19.766a6 6 0 0 0 12 0v-32.7a11.648 11.648 0 0 0 .113-1.439 6.009 6.009 0 0 0 -.113-1.252v-178.486c0-18.676-45.779-23.659-72.828-23.659s-72.827 4.983-72.827 23.659v269.725c0 18.677 45.779 23.659 72.827 23.659zm60.828-256.228c-1.779 4.2-24.15 13.794-60.561 13.794-41.006 0-58.891-6.657-61.094-9.86v-27.061c15.439 7.33 42.452 9.631 60.827 9.631s45.389-2.3 60.828-9.631zm-109.233 21.545c12.5 2.74 29.79 4.249 48.672 4.249 18.021 0 35.379-2.278 48.878-6.414a71.658 71.658 0 0 0 11.683-4.6v32.5c-1.779 4.2-24.15 13.794-60.561 13.794-41.006 0-58.891-6.657-61.094-9.86v-33.386a69.772 69.772 0 0 0 12.422 3.717zm0 47.279c12.5 2.74 29.79 4.249 48.672 4.249 18.021 0 35.379-2.278 48.878-6.414a71.658 71.658 0 0 0 11.683-4.6v32.5c-1.779 4.2-24.15 13.794-60.561 13.794-41.006 0-58.891-6.658-61.094-9.861v-33.381a69.772 69.772 0 0 0 12.422 3.713zm48.637 86.3c-41.069-.6-58.868-7.539-61-10.77a5.821 5.821 0 0 0 -.063-.637v-31.331a69.772 69.772 0 0 0 12.422 3.717c12.5 2.74 29.789 4.249 48.672 4.249 18.021 0 35.379-2.278 48.878-6.414a71.654 71.654 0 0 0 11.683-4.6v33.088c-2.442 4.261-24.763 13.223-60.592 12.698zm-.232-203.939c38.3 0 58.029 7.944 60.678 11.659-2.649 3.716-22.381 11.66-60.678 11.66s-58.028-7.944-60.677-11.66c2.649-3.715 22.381-11.659 60.677-11.659z" fill="#4bb5f0"/>
<path d="m299.157 99.367a8.435 8.435 0 0 0 6.828-1.516l82.937-62.594-2.5 21.865a6 6 0 0 0 5.28 6.643 6.16 6.16 0 0 0 .689.039 6 6 0 0 0 5.953-5.319l3.856-33.685.039-.682a7.992 7.992 0 0 0 -2.162-5.468 6.033 6.033 0 0 0 -.583-.561 8.068 8.068 0 0 0 -4.623-1.981l-33.224-6.008a6 6 0 1 0 -2.139 11.8l21.926 3.971-81.377 61.42-75-15.91h-.63a8.415 8.415 0 0 0 -7.024 3.773l-46.126 58.036-92.527 19.81a6 6 0 1 0 2.512 11.734l92.9-19.885a8.428 8.428 0 0 0 6.142-3.726l45.547-57.3z" fill="#e95959"/>
<path d="m383.936 360.154c-39.736 0-72.064 31.816-72.064 70.923s32.328 70.923 72.064 70.923 72.064-31.816 72.064-70.923-32.328-70.923-72.064-70.923zm0 129.846c-33.12 0-60.064-26.433-60.064-58.923s26.944-58.923 60.064-58.923 60.064 26.433 60.064 58.923-26.944 58.923-60.064 58.923z" fill="#e95959"/>
<path d="m385.6 405.289c8.281.336 10.323 6.941 10.542 7.749a6 6 0 0 0 11.657-2.847 22.861 22.861 0 0 0 -16.857-16.248v-2.938a6 6 0 0 0 -12 0v3a18.969 18.969 0 0 0 -8.63 4.755c-5.971 5.818-6.324 13.893-6.29 16.228a18.99 18.99 0 0 0 4.578 12.002 21.238 21.238 0 0 0 12.294 6.971l.8.157c.653.129 1.444.284 1.916.374.228.049.888.247 1.138.323a.714.714 0 0 1 .107.039c.075.032.15.063.225.091l1.207.463a.976.976 0 0 1 .108.048c.516.262.677.356 1.017.555l.7.409c.059.038.117.073.168.105.659.4 6.448 4.048 6.651 8.916.121 2.889-.572 5.045-2.12 6.592-2.282 2.282-6.377 3.19-9.22 3.072-3.027-.128-9.2-2.849-9.7-7.381a6 6 0 1 0 -11.926 1.331c1.095 9.805 9.673 15.574 16.983 17.408v2.245a6 6 0 0 0 12 0v-2.493a22.639 22.639 0 0 0 10.349-5.695c3.943-3.941 5.888-9.329 5.626-15.581-.442-10.566-9.547-16.926-12.408-18.668l-.131-.083c-.093-.061-.19-.12-.288-.176l-.633-.366c-.54-.315-.8-.464-1.618-.883a12.958 12.958 0 0 0 -1.26-.56l-1.107-.425a13.373 13.373 0 0 0 -1.269-.455c-.811-.244-1.6-.474-2.326-.613-.47-.09-1.234-.241-1.865-.365l-.824-.162c-4.892-.953-7.124-4.389-7.168-7.371-.032-2.212.647-5.492 2.666-7.459 1.553-1.515 3.822-2.189 6.908-2.064z" fill="#e95959"/>
</svg>