<svg id="Layer_1" height="65" viewBox="0 0 512 512" width="65" xmlns="http://www.w3.org/2000/svg" data-name="Layer 1">
<path d="m251.667 331.624a103.87 103.87 0 0 1 19.383-200.884 103.922 103.922 0 1 0 -.1 205.6 104.2 104.2 0 0 1 -19.283-4.716z" fill="#d4e1f4"/>
<g fill="#e95959">
<path d="m317.562 504.432a45.669 45.669 0 0 0 58.175-28.007 45.619 45.619 0 0 0 -49.661-60.2l-21.215-83.025a6 6 0 0 0 -11.627 2.971l21.293 83.329a45.6 45.6 0 0 0 3.035 84.931zm-16.7-54.172a33.659 33.659 0 0 1 63.552 22.2 33.659 33.659 0 0 1 -63.552-22.2z"/>
<path d="m76.2 358.326a42.209 42.209 0 0 0 39.811-28.208 41.748 41.748 0 0 0 .79-25.291l41.716-20.3a6 6 0 1 0 -5.25-10.79l-41.333 20.115a42.118 42.118 0 1 0 -35.734 64.474zm-27.111-29.043a30.131 30.131 0 1 1 55.6-3.129 30.149 30.149 0 0 1 -55.6 3.129z"/>
<path d="m226.229 51.764a24.2 24.2 0 0 0 3.436.907l9.4 72.269a6 6 0 0 0 5.942 5.226 6.111 6.111 0 0 0 .783-.05 6 6 0 0 0 5.175-6.724l-9.3-71.495a24.031 24.031 0 1 0 -15.437-.133zm-3.448-26.684a12.074 12.074 0 0 1 22.265-1.252 11.958 11.958 0 0 1 .52 9.207 12.075 12.075 0 0 1 -22.266 1.253 11.96 11.96 0 0 1 -.519-9.208z"/>
<path d="m426.286 282.2a24.082 24.082 0 0 0 -23.079 4.017l-39.966-22.458a6 6 0 0 0 -5.879 10.462l38.65 21.719c-.136.337-.267.677-.388 1.024a24.067 24.067 0 0 0 45.437 15.883 24.05 24.05 0 0 0 -14.775-30.647zm3.449 26.682a12.074 12.074 0 0 1 -22.266 1.253 11.957 11.957 0 0 1 -.519-9.207 12.073 12.073 0 0 1 22.265-1.253 11.958 11.958 0 0 1 .52 9.207z"/>
<path d="m457.938 106.021a29.76 29.76 0 0 0 -39.61 28.932l-70.907 36.437a6 6 0 1 0 5.485 10.673l68.313-35.1a29.8 29.8 0 0 0 55.01-3 29.772 29.772 0 0 0 -18.291-37.94zm6.962 33.979a17.773 17.773 0 1 1 -.766-13.582 17.644 17.644 0 0 1 .766 13.582z"/>
</g>
<path fill="#4bb5f0"  d="m365.5 271.805a115.884 115.884 0 0 0 -71.206-147.673c-60.378-21.1-126.672 10.82-147.788 71.146a115.99 115.99 0 0 0 218.994 76.527zm-109.592 65.651a103.911 103.911 0 1 1 98.262-69.615 103.661 103.661 0 0 1 -98.262 69.615z"/>
<path fill="#4bb5f0" d="m257.021 228.087c12 0 21.051-8.611 21.051-20.03a21.051 21.051 0 1 0 -42.1 0c-.002 11.419 9.048 20.03 21.049 20.03zm0-29.082a9.062 9.062 0 0 1 9.051 9.052c0 5.517-4.692 8.03-9.051 8.03s-9.051-2.513-9.051-8.03a9.062 9.062 0 0 1 9.051-9.052z"/>
<path fill="#4bb5f0" d="m257.574 229.824h-1.107a32.588 32.588 0 0 0 -32.551 32.551v4.157a7.8 7.8 0 0 0 7.794 7.794h50.621a7.8 7.8 0 0 0 7.793-7.794v-4.157a32.587 32.587 0 0 0 -32.55-32.551zm-21.658 32.5a20.576 20.576 0 0 1 20.551-20.5h1.107a20.574 20.574 0 0 1 20.55 20.5z"/>
</svg>