<?xml version="1.0" encoding="UTF-8"?>
<svg width="467px" height="405px" viewBox="0 0 467 405" version="1.1" xmlns="http://www.w3.org/2000/svg" xmlns:xlink="http://www.w3.org/1999/xlink">
  <g id="Page-1" stroke="none" stroke-width="1" fill="none">
        <g id="Original-Copy-2" fill="#E95959" >
            <g id="SvgjsG1009">
              
                    <g id="Shape">
                        <path d="M311.173472,145.337232 L466.729848,145.337232 L382.914394,0.160348521 L305.130975,134.874033 L161.659593,134.874033 L83.8866363,0.160348521 L0.0659508499,145.337232 L155.617096,145.337232 L227.352786,269.587717 L149.574598,404.301402 L317.210738,404.301402 L239.432549,269.587717 L311.173472,145.337232 Z M382.909163,21.0867461 L448.602356,134.874033 L317.210738,134.874033 L382.909163,21.0867461 Z M18.1882111,134.874033 L83.8866363,21.0867461 L149.57983,134.874033 L18.1882111,134.874033 Z M167.696859,145.337232 L299.083246,145.337232 L233.395284,259.124518 L167.696859,145.337232 Z M299.088477,393.838203 L167.696859,393.838203 L233.395284,280.050916 L299.088477,393.838203 Z"></path>
                
                </g>
            </g>
        </g>
    </g>
</svg>